<svg width="24" height="24" viewBox="0 0 24 24" fill="none" xmlns="http://www.w3.org/2000/svg">
<g clip-path="url(#clip0_1535_923)">
<path fill-rule="evenodd" clip-rule="evenodd" d="M7.63636 0H16.3636C20.5811 0 24 3.41892 24 7.63636V16.3636C24 20.5811 20.5811 24 16.3636 24H7.63636C3.41892 24 0 20.5811 0 16.3636V7.63636C0 3.41892 3.41892 0 7.63636 0ZM7.8528 2.66655C4.9891 2.66655 2.66761 4.98803 2.66761 7.85173V16.148C2.66761 19.0117 4.9891 21.3332 7.8528 21.3332H16.1491C19.0128 21.3332 21.3343 19.0117 21.3343 16.148V7.85173C21.3343 4.98803 19.0128 2.66655 16.1491 2.66655H7.8528ZM19.9998 6.66709C20.0001 5.93084 19.4037 5.33364 18.6674 5.3331C18.3136 5.33283 17.9742 5.47319 17.724 5.72327C17.4737 5.97335 17.3331 6.31264 17.3331 6.66643C17.3331 7.40268 17.9298 7.99958 18.6661 7.99976C19.4024 7.99995 19.9994 7.40334 19.9998 6.66709ZM12.0002 6.6669C14.9458 6.6669 17.3336 9.05472 17.3336 12.0002C17.3336 14.9458 14.9458 17.3336 12.0002 17.3336C9.05472 17.3336 6.6669 14.9458 6.6669 12.0002C6.6669 9.05472 9.05472 6.6669 12.0002 6.6669ZM14.6657 12.0001C14.6657 10.5274 13.4718 9.33345 11.9991 9.33345C10.5263 9.33345 9.33239 10.5274 9.33239 12.0001C9.33239 13.4729 10.5263 14.6668 11.9991 14.6668C13.4718 14.6668 14.6657 13.4729 14.6657 12.0001Z" fill="black"/>
</g>
<defs>
<clipPath id="clip0_1535_923">
<rect width="24" height="24" fill="white"/>
</clipPath>
</defs>
</svg>
