<svg width="70" height="29" viewBox="0 0 70 29" fill="none" xmlns="http://www.w3.org/2000/svg">
<path d="M3.32429 16.6407C2.6436 16.5774 1.84815 16.5457 0.937924 16.5457H0L5.16452 2.0732C5.39405 1.42418 5.50882 1.04821 5.50882 0.94532C5.50882 0.834511 5.50486 0.767233 5.49695 0.743488L5.50882 0.719744C6.02329 0.743488 6.56943 0.755361 7.14722 0.755361C7.62212 0.755361 8.19199 0.747446 8.85685 0.731616L8.86872 0.755361C8.85289 0.787021 8.84498 0.830553 8.84498 0.885958C8.84498 1.03634 8.9637 1.43605 9.20115 2.08508L14.4725 16.5813C14.3142 16.5734 14.1282 16.5695 13.9145 16.5695C13.9145 16.5695 13.7087 16.5616 13.2972 16.5457C13.0993 16.5457 12.9212 16.5457 12.7629 16.5457H10.9227L9.80665 13.1265H4.4403L3.32429 16.6407ZM8.8806 10.2771L7.08786 4.75638L5.34261 10.2771H8.8806Z" fill="#0E0E0E"/>
<path d="M29.4081 7.02402C29.2577 7.29313 29.1825 7.9382 29.1825 8.95923V12.6397C29.1825 13.7557 28.6047 14.7253 27.4491 15.5484C26.254 16.4112 24.7897 16.8425 23.0563 16.8425C20.6502 16.8425 18.7308 16.0867 17.2982 14.5749C15.913 13.1344 15.2205 11.2981 15.2205 9.06608C15.2205 6.69159 15.9249 4.71285 17.3338 3.12985C18.9089 1.34898 21.0776 0.458549 23.8399 0.458549C25.6841 0.458549 27.1444 0.814723 28.2208 1.52707L28.0309 5.02944L27.9359 5.05319C27.6589 4.57038 27.1127 4.17463 26.2975 3.86594C25.5218 3.57309 24.7066 3.42666 23.8518 3.42666C23.0049 3.42666 22.2609 3.56122 21.6197 3.83033C20.9865 4.09944 20.4483 4.48331 20.0051 4.98196C19.0711 6.00299 18.6041 7.35249 18.6041 9.03046C18.6041 10.4947 19.0157 11.6701 19.8389 12.5566C20.662 13.4351 21.7226 13.8744 23.0207 13.8744C24.4533 13.8744 25.4189 13.5024 25.9176 12.7584C26.0759 12.521 26.155 12.2519 26.155 11.9511V9.98026H24.6235C23.8003 9.98026 23.3531 10.0515 23.2819 10.194L23.2463 10.1821L23.1394 7.08338C23.361 7.1467 24.2594 7.17836 25.8345 7.17836H27.2354C28.1061 7.17836 28.8184 7.119 29.3725 7.00027L29.4081 7.02402Z" fill="#0E0E0E"/>
<path d="M33.7415 16.6407C33.0608 16.5774 32.2654 16.5457 31.3552 16.5457H30.4172L35.5818 2.0732C35.8113 1.42418 35.9261 1.04821 35.9261 0.94532C35.9261 0.834511 35.9221 0.767233 35.9142 0.743488L35.9261 0.719744C36.4405 0.743488 36.9867 0.755361 37.5645 0.755361C38.0393 0.755361 38.6092 0.747446 39.2741 0.731616L39.286 0.755361C39.2701 0.787021 39.2622 0.830553 39.2622 0.885958C39.2622 1.03634 39.3809 1.43605 39.6184 2.08508L44.8898 16.5813C44.7315 16.5734 44.5455 16.5695 44.3318 16.5695C44.3318 16.5695 44.126 16.5616 43.7144 16.5457C43.5165 16.5457 43.3384 16.5457 43.1801 16.5457H41.3399L40.2239 13.1265H34.8575L33.7415 16.6407ZM39.2978 10.2771L37.5051 4.75638L35.7598 10.2771H39.2978Z" fill="#0E0E0E"/>
<path d="M53.5685 16.5932C53.3152 16.5616 52.8997 16.5457 52.3219 16.5457H51.0159C50.8022 16.5457 50.6083 16.5536 50.4342 16.5695L50.4223 16.5457C50.454 16.4903 50.4698 16.427 50.4698 16.3558C50.4698 16.2845 50.4619 16.2093 50.4461 16.1302C50.4382 16.051 50.4065 15.9086 50.3511 15.7028C50.2957 15.497 50.2086 15.2002 50.0899 14.8123L49.5912 13.2214L45.1747 0.707871C45.6654 0.739531 46.2907 0.755361 47.0505 0.755361C47.8104 0.755361 48.2972 0.723701 48.5109 0.660381L52.0845 11.4524L55.2188 0.707871C55.6937 0.739531 56.2794 0.755361 56.9759 0.755361C57.9257 0.755361 58.4798 0.723701 58.6381 0.660381L54.3046 13.1858C54.3046 13.1858 54.1661 13.6488 53.8891 14.5749C53.6595 15.3664 53.5448 15.8809 53.5448 16.1183C53.5448 16.3479 53.5606 16.4943 53.5923 16.5576L53.5685 16.5932Z" fill="#0E0E0E"/>
<path d="M68.9315 13.6963C69.4222 13.6963 69.7626 13.6488 69.9525 13.5539L70 13.5657L69.8813 16.5457H60.9888V0.672254C61.2025 0.688084 61.44 0.699956 61.7012 0.707871L62.5322 0.731616C63.0863 0.747446 63.6878 0.755361 64.3368 0.755361C66.1494 0.755361 67.9421 0.723701 69.7151 0.660381C69.628 1.3569 69.5845 2.28691 69.5845 3.45041C69.5845 3.57705 69.5924 3.67203 69.6082 3.73535L69.5845 3.77096C69.1729 3.65224 68.5872 3.59288 67.8273 3.59288H64.0875V6.62035H66.9013C67.7719 6.62035 68.2943 6.59661 68.4685 6.54912L68.5041 9.48162C68.1242 9.44204 67.6334 9.42225 67.0319 9.42225H64.0875V13.6963H68.9315Z" fill="#0E0E0E"/>
<path d="M24.7149 28.1723C24.3366 28.5506 23.7439 28.7397 22.9368 28.7397C22.1534 28.7397 21.5134 28.5016 21.017 28.0254C20.5138 27.5425 20.2622 26.9009 20.2622 26.1005C20.2622 25.2866 20.5104 24.618 21.0068 24.0945C21.5337 23.5441 22.2378 23.2688 23.1192 23.2688C23.7439 23.2688 24.2674 23.4056 24.6895 23.6792L24.4869 24.9759L24.4514 24.9709C24.2893 24.775 24.1188 24.6467 23.9398 24.5859C23.6494 24.4846 23.359 24.4339 23.0685 24.4339C22.7781 24.4339 22.5502 24.4711 22.3847 24.5454C22.2192 24.6197 22.0774 24.7227 21.9592 24.8544C21.7228 25.1245 21.6046 25.4825 21.6046 25.9283C21.6046 26.7185 21.8781 27.2352 22.4252 27.4783C22.6143 27.5594 22.8136 27.5999 23.0229 27.5999C23.2357 27.5999 23.4198 27.5813 23.5751 27.5442C23.7338 27.507 23.8773 27.4564 24.0057 27.3922C24.2792 27.2571 24.465 27.1001 24.5629 26.9211L24.5983 26.9363L24.7149 28.1723Z" fill="#0E0E0E"/>
<path d="M25.3886 26.0448C25.3886 25.6733 25.4511 25.3187 25.576 24.981C25.7043 24.6399 25.8867 24.3427 26.1231 24.0895C26.6398 23.5424 27.3101 23.2688 28.1341 23.2688C28.9547 23.2688 29.6065 23.5272 30.0894 24.0439C30.5521 24.5369 30.7834 25.1769 30.7834 25.9637C30.7834 26.7506 30.5453 27.4024 30.0692 27.919C29.566 28.4661 28.899 28.7397 28.0683 28.7397C27.2105 28.7397 26.5385 28.4712 26.0522 27.9342C25.6098 27.4446 25.3886 26.8147 25.3886 26.0448ZM26.6195 26.0144C26.6195 26.2271 26.655 26.4331 26.7259 26.6324C26.7968 26.8316 26.8981 27.0022 27.0298 27.144C27.3101 27.4513 27.6782 27.605 28.1341 27.605C28.5563 27.605 28.8889 27.4547 29.132 27.1541C29.3684 26.8637 29.4866 26.4855 29.4866 26.0195C29.4866 25.5467 29.3651 25.1651 29.1219 24.8746C28.8619 24.5639 28.5056 24.4086 28.0531 24.4086C27.5938 24.4086 27.2341 24.5741 26.9741 24.905C26.7377 25.209 26.6195 25.5787 26.6195 26.0144Z" fill="#0E0E0E"/>
<path d="M34.3699 23.9527C34.3428 24.0506 34.3293 24.2972 34.3293 24.6923V25.138H33.1085V28.6637H31.8675V25.138H31.1228C31.1262 24.9152 31.1296 24.7176 31.1329 24.5454L31.1431 24.0033V23.9527H31.8675V23.6386C31.8675 22.8281 32.0566 22.1764 32.4348 21.6833C32.8299 21.1734 33.3736 20.9184 34.0659 20.9184C34.3597 20.9184 34.5539 20.9387 34.6485 20.9792L34.6535 22.2507L34.6434 22.276C34.5151 22.1477 34.3513 22.0835 34.152 22.0835C33.9562 22.0835 33.7974 22.1173 33.6759 22.1848C33.5543 22.249 33.4513 22.3418 33.3669 22.4634C33.1946 22.7066 33.1085 23.0392 33.1085 23.4613V23.9527H34.3699Z" fill="#0E0E0E"/>
<path d="M37.8347 23.9527C37.8077 24.0506 37.7942 24.2972 37.7942 24.6923V25.138H36.5734V28.6637H35.3323V25.138H34.5877C34.591 24.9152 34.5944 24.7176 34.5978 24.5454L34.6079 24.0033V23.9527H35.3323V23.6386C35.3323 22.8281 35.5214 22.1764 35.8997 21.6833C36.2948 21.1734 36.8385 20.9184 37.5308 20.9184C37.8246 20.9184 38.0188 20.9387 38.1133 20.9792L38.1184 22.2507L38.1082 22.276C37.9799 22.1477 37.8161 22.0835 37.6169 22.0835C37.421 22.0835 37.2623 22.1173 37.1407 22.1848C37.0191 22.249 36.9161 22.3418 36.8317 22.4634C36.6595 22.7066 36.5734 23.0392 36.5734 23.4613V23.9527H37.8347Z" fill="#0E0E0E"/>
<path d="M38.5186 26.06C38.5186 25.6649 38.5861 25.2984 38.7212 24.9607C38.8563 24.623 39.0471 24.3275 39.2936 24.0743C39.8204 23.5373 40.5093 23.2688 41.3604 23.2688C42.0797 23.2688 42.6571 23.5069 43.0928 23.9831C43.5217 24.4424 43.7361 25.0198 43.7361 25.7155C43.7361 25.9823 43.7158 26.1647 43.6753 26.2626C43.3376 26.3572 42.6504 26.4044 41.6136 26.4044H39.8305C39.9184 26.7658 40.1227 27.0478 40.4435 27.2504C40.7643 27.4496 41.1814 27.5493 41.6947 27.5493C42.2316 27.5493 42.6926 27.453 43.0776 27.2605C43.1789 27.2099 43.2549 27.1626 43.3055 27.1187C43.2988 27.2605 43.2903 27.4057 43.2802 27.5543L43.2245 28.3446C42.9678 28.5202 42.5525 28.6417 41.9784 28.7093C41.8095 28.7295 41.6474 28.7397 41.4921 28.7397C40.6343 28.7397 39.9251 28.4898 39.3645 27.99C38.8005 27.4868 38.5186 26.8435 38.5186 26.06ZM42.3887 25.4217C42.2502 24.6956 41.8551 24.3326 41.2033 24.3326C40.69 24.3326 40.3 24.5538 40.0332 24.9962C39.9521 25.1313 39.8896 25.2799 39.8457 25.442C39.9268 25.4454 40.0264 25.4487 40.1446 25.4521H40.5195C40.6444 25.4555 40.7643 25.4572 40.8791 25.4572H41.1679C41.3401 25.4572 41.5089 25.4555 41.6744 25.4521L42.0898 25.4369C42.2012 25.4335 42.3009 25.4285 42.3887 25.4217Z" fill="#0E0E0E"/>
<path d="M44.5871 26.06C44.5871 25.6649 44.6547 25.2984 44.7898 24.9607C44.9248 24.623 45.1156 24.3275 45.3622 24.0743C45.889 23.5373 46.5779 23.2688 47.4289 23.2688C48.1482 23.2688 48.7257 23.5069 49.1613 23.9831C49.5902 24.4424 49.8047 25.0198 49.8047 25.7155C49.8047 25.9823 49.7844 26.1647 49.7439 26.2626C49.4062 26.3572 48.719 26.4044 47.6822 26.4044H45.8991C45.9869 26.7658 46.1912 27.0478 46.512 27.2504C46.8329 27.4496 47.2499 27.5493 47.7632 27.5493C48.3002 27.5493 48.7612 27.453 49.1462 27.2605C49.2475 27.2099 49.3234 27.1626 49.3741 27.1187C49.3673 27.2605 49.3589 27.4057 49.3488 27.5543L49.2931 28.3446C49.0364 28.5202 48.621 28.6417 48.0469 28.7093C47.8781 28.7295 47.716 28.7397 47.5606 28.7397C46.7029 28.7397 45.9937 28.4898 45.4331 27.99C44.8691 27.4868 44.5871 26.8435 44.5871 26.06ZM48.4572 25.4217C48.3188 24.6956 47.9237 24.3326 47.2719 24.3326C46.7586 24.3326 46.3685 24.5538 46.1017 24.9962C46.0207 25.1313 45.9582 25.2799 45.9143 25.442C45.9954 25.4454 46.095 25.4487 46.2132 25.4521H46.588C46.713 25.4555 46.8329 25.4572 46.9477 25.4572H47.2364C47.4087 25.4572 47.5775 25.4555 47.743 25.4521L48.1584 25.4369C48.2698 25.4335 48.3694 25.4285 48.4572 25.4217Z" fill="#0E0E0E"/>
</svg>
