<svg width="70" height="106" viewBox="0 0 70 106" fill="none" xmlns="http://www.w3.org/2000/svg">
<path d="M3.32429 93.6653C2.6436 93.602 1.84815 93.5703 0.937924 93.5703H0L5.16452 79.0978C5.39405 78.4488 5.50882 78.0728 5.50882 77.9699C5.50882 77.8591 5.50486 77.7918 5.49695 77.7681L5.50882 77.7443C6.02329 77.7681 6.56943 77.7799 7.14722 77.7799C7.62212 77.7799 8.19199 77.772 8.85685 77.7562L8.86872 77.7799C8.85289 77.8116 8.84498 77.8551 8.84498 77.9105C8.84498 78.0609 8.9637 78.4606 9.20115 79.1097L14.4725 93.6059C14.3142 93.598 14.1282 93.5941 13.9145 93.5941C13.9145 93.5941 13.7087 93.5861 13.2972 93.5703C13.0993 93.5703 12.9212 93.5703 12.7629 93.5703H10.9227L9.80665 90.151H4.4403L3.32429 93.6653ZM8.8806 87.3017L7.08786 81.781L5.34261 87.3017H8.8806Z" fill="#0E0E0E"/>
<path d="M29.4081 84.0486C29.2577 84.3177 29.1825 84.9628 29.1825 85.9838V89.6643C29.1825 90.7803 28.6047 91.7499 27.4491 92.573C26.254 93.4358 24.7897 93.8671 23.0563 93.8671C20.6502 93.8671 18.7308 93.1112 17.2982 91.5995C15.913 90.159 15.2205 88.3227 15.2205 86.0907C15.2205 83.7162 15.9249 81.7374 17.3338 80.1544C18.9089 78.3736 21.0776 77.4831 23.8399 77.4831C25.6841 77.4831 27.1444 77.8393 28.2208 78.5517L28.0309 82.054L27.9359 82.0778C27.6589 81.595 27.1127 81.1992 26.2975 80.8905C25.5218 80.5977 24.7066 80.4512 23.8518 80.4512C23.0049 80.4512 22.2609 80.5858 21.6197 80.8549C20.9865 81.124 20.4483 81.5079 20.0051 82.0065C19.0711 83.0276 18.6041 84.3771 18.6041 86.055C18.6041 87.5193 19.0157 88.6947 19.8389 89.5812C20.662 90.4597 21.7226 90.899 23.0207 90.899C24.4533 90.899 25.4189 90.527 25.9176 89.783C26.0759 89.5455 26.155 89.2764 26.155 88.9757V87.0048H24.6235C23.8003 87.0048 23.3531 87.0761 23.2819 87.2185L23.2463 87.2067L23.1394 84.108C23.361 84.1713 24.2594 84.2029 25.8345 84.2029H27.2354C28.1061 84.2029 28.8184 84.1436 29.3725 84.0249L29.4081 84.0486Z" fill="#0E0E0E"/>
<path d="M33.7415 93.6653C33.0608 93.602 32.2654 93.5703 31.3552 93.5703H30.4172L35.5818 79.0978C35.8113 78.4488 35.9261 78.0728 35.9261 77.9699C35.9261 77.8591 35.9221 77.7918 35.9142 77.7681L35.9261 77.7443C36.4405 77.7681 36.9867 77.7799 37.5645 77.7799C38.0393 77.7799 38.6092 77.772 39.2741 77.7562L39.286 77.7799C39.2701 77.8116 39.2622 77.8551 39.2622 77.9105C39.2622 78.0609 39.3809 78.4606 39.6184 79.1097L44.8898 93.6059C44.7315 93.598 44.5455 93.5941 44.3318 93.5941C44.3318 93.5941 44.126 93.5861 43.7144 93.5703C43.5165 93.5703 43.3384 93.5703 43.1801 93.5703H41.3399L40.2239 90.151H34.8575L33.7415 93.6653ZM39.2978 87.3017L37.5051 81.781L35.7598 87.3017H39.2978Z" fill="#0E0E0E"/>
<path d="M53.5685 93.6178C53.3152 93.5861 52.8997 93.5703 52.3219 93.5703H51.0159C50.8022 93.5703 50.6083 93.5782 50.4342 93.5941L50.4223 93.5703C50.454 93.5149 50.4698 93.4516 50.4698 93.3804C50.4698 93.3091 50.4619 93.2339 50.4461 93.1548C50.4382 93.0756 50.4065 92.9332 50.3511 92.7274C50.2957 92.5216 50.2086 92.2248 50.0899 91.8369L49.5912 90.246L45.1747 77.7325C45.6654 77.7641 46.2907 77.7799 47.0505 77.7799C47.8104 77.7799 48.2972 77.7483 48.5109 77.685L52.0845 88.477L55.2188 77.7325C55.6937 77.7641 56.2794 77.7799 56.9759 77.7799C57.9257 77.7799 58.4798 77.7483 58.6381 77.685L54.3046 90.2104C54.3046 90.2104 54.1661 90.6734 53.8891 91.5995C53.6595 92.391 53.5448 92.9055 53.5448 93.1429C53.5448 93.3724 53.5606 93.5189 53.5923 93.5822L53.5685 93.6178Z" fill="#0E0E0E"/>
<path d="M68.9315 90.7209C69.4222 90.7209 69.7626 90.6734 69.9525 90.5785L70 90.5903L69.8813 93.5703H60.9888V77.6968C61.2025 77.7127 61.44 77.7245 61.7012 77.7325L62.5322 77.7562C63.0863 77.772 63.6878 77.7799 64.3368 77.7799C66.1494 77.7799 67.9421 77.7483 69.7151 77.685C69.628 78.3815 69.5845 79.3115 69.5845 80.475C69.5845 80.6016 69.5924 80.6966 69.6082 80.7599L69.5845 80.7955C69.1729 80.6768 68.5872 80.6175 67.8273 80.6175H64.0875V83.6449H66.9013C67.7719 83.6449 68.2943 83.6212 68.4685 83.5737L68.5041 86.5062C68.1242 86.4666 67.6334 86.4468 67.0319 86.4468H64.0875V90.7209H68.9315Z" fill="#0E0E0E"/>
<path d="M24.715 105.197C24.3367 105.575 23.7441 105.764 22.937 105.764C22.1535 105.764 21.5135 105.526 21.0171 105.05C20.5139 104.567 20.2623 103.925 20.2623 103.125C20.2623 102.311 20.5105 101.643 21.007 101.119C21.5338 100.569 22.2379 100.293 23.1193 100.293C23.7441 100.293 24.2675 100.43 24.6896 100.704L24.487 102.001L24.4516 101.995C24.2895 101.8 24.1189 101.671 23.9399 101.61C23.6495 101.509 23.3591 101.459 23.0687 101.459C22.7782 101.459 22.5503 101.496 22.3848 101.57C22.2193 101.644 22.0775 101.747 21.9593 101.879C21.7229 102.149 21.6047 102.507 21.6047 102.953C21.6047 103.743 21.8782 104.26 22.4253 104.503C22.6144 104.584 22.8137 104.625 23.0231 104.625C23.2358 104.625 23.4199 104.606 23.5752 104.569C23.7339 104.532 23.8775 104.481 24.0058 104.417C24.2793 104.282 24.4651 104.125 24.563 103.946L24.5985 103.961L24.715 105.197Z" fill="#0E0E0E"/>
<path d="M25.3887 103.069C25.3887 102.698 25.4512 102.343 25.5761 102.006C25.7045 101.665 25.8868 101.367 26.1232 101.114C26.6399 100.567 27.3102 100.293 28.1342 100.293C28.9549 100.293 29.6066 100.552 30.0896 101.068C30.5522 101.562 30.7835 102.201 30.7835 102.988C30.7835 103.775 30.5455 104.427 30.0693 104.944C29.5661 105.491 28.8991 105.764 28.0684 105.764C27.2106 105.764 26.5386 105.496 26.0523 104.959C25.6099 104.469 25.3887 103.839 25.3887 103.069ZM26.6196 103.039C26.6196 103.252 26.6551 103.458 26.726 103.657C26.7969 103.856 26.8982 104.027 27.0299 104.169C27.3102 104.476 27.6783 104.63 28.1342 104.63C28.5564 104.63 28.889 104.479 29.1322 104.179C29.3686 103.888 29.4868 103.51 29.4868 103.044C29.4868 102.571 29.3652 102.19 29.122 101.899C28.862 101.589 28.5057 101.433 28.0532 101.433C27.5939 101.433 27.2343 101.599 26.9742 101.93C26.7378 102.234 26.6196 102.603 26.6196 103.039Z" fill="#0E0E0E"/>
<path d="M34.37 100.977C34.343 101.075 34.3294 101.322 34.3294 101.717V102.163H33.1086V105.688H31.8676V102.163H31.1229C31.1263 101.94 31.1297 101.742 31.1331 101.57L31.1432 101.028V100.977H31.8676V100.663C31.8676 99.8527 32.0567 99.201 32.4349 98.7079C32.83 98.198 33.3737 97.943 34.066 97.943C34.3598 97.943 34.554 97.9633 34.6486 98.0038L34.6536 99.2753L34.6435 99.3006C34.5152 99.1723 34.3514 99.1081 34.1522 99.1081C33.9563 99.1081 33.7976 99.1419 33.676 99.2094C33.5544 99.2736 33.4514 99.3664 33.367 99.488C33.1948 99.7312 33.1086 100.064 33.1086 100.486V100.977H34.37Z" fill="#0E0E0E"/>
<path d="M37.8348 100.977C37.8078 101.075 37.7943 101.322 37.7943 101.717V102.163H36.5735V105.688H35.3324V102.163H34.5878C34.5912 101.94 34.5945 101.742 34.5979 101.57L34.6081 101.028V100.977H35.3324V100.663C35.3324 99.8527 35.5216 99.201 35.8998 98.7079C36.2949 98.198 36.8386 97.943 37.5309 97.943C37.8247 97.943 38.0189 97.9633 38.1134 98.0038L38.1185 99.2753L38.1084 99.3006C37.98 99.1723 37.8163 99.1081 37.617 99.1081C37.4211 99.1081 37.2624 99.1419 37.1408 99.2094C37.0193 99.2736 36.9163 99.3664 36.8318 99.488C36.6596 99.7312 36.5735 100.064 36.5735 100.486V100.977H37.8348Z" fill="#0E0E0E"/>
<path d="M38.5187 103.085C38.5187 102.689 38.5862 102.323 38.7213 101.985C38.8564 101.648 39.0472 101.352 39.2937 101.099C39.8205 100.562 40.5095 100.293 41.3605 100.293C42.0798 100.293 42.6573 100.532 43.0929 101.008C43.5218 101.467 43.7362 102.044 43.7362 102.74C43.7362 103.007 43.716 103.189 43.6754 103.287C43.3377 103.382 42.6505 103.429 41.6138 103.429H39.8307C39.9185 103.79 40.1228 104.072 40.4436 104.275C40.7644 104.474 41.1815 104.574 41.6948 104.574C42.2318 104.574 42.6927 104.478 43.0777 104.285C43.179 104.234 43.255 104.187 43.3057 104.143C43.2989 104.285 43.2905 104.43 43.2803 104.579L43.2246 105.369C42.968 105.545 42.5526 105.666 41.9785 105.734C41.8096 105.754 41.6475 105.764 41.4922 105.764C40.6344 105.764 39.9252 105.514 39.3646 105.015C38.8007 104.511 38.5187 103.868 38.5187 103.085ZM42.3888 102.446C42.2503 101.72 41.8552 101.357 41.2034 101.357C40.6901 101.357 40.3001 101.578 40.0333 102.021C39.9522 102.156 39.8898 102.304 39.8459 102.467C39.9269 102.47 40.0265 102.473 40.1447 102.477H40.5196C40.6445 102.48 40.7644 102.482 40.8792 102.482H41.168C41.3402 102.482 41.5091 102.48 41.6745 102.477L42.0899 102.462C42.2014 102.458 42.301 102.453 42.3888 102.446Z" fill="#0E0E0E"/>
<path d="M44.5873 103.085C44.5873 102.689 44.6548 102.323 44.7899 101.985C44.925 101.648 45.1158 101.352 45.3623 101.099C45.8891 100.562 46.578 100.293 47.429 100.293C48.1484 100.293 48.7258 100.532 49.1615 101.008C49.5904 101.467 49.8048 102.044 49.8048 102.74C49.8048 103.007 49.7845 103.189 49.744 103.287C49.4063 103.382 48.7191 103.429 47.6823 103.429H45.8992C45.987 103.79 46.1914 104.072 46.5122 104.275C46.833 104.474 47.2501 104.574 47.7634 104.574C48.3003 104.574 48.7613 104.478 49.1463 104.285C49.2476 104.234 49.3236 104.187 49.3742 104.143C49.3675 104.285 49.359 104.43 49.3489 104.579L49.2932 105.369C49.0365 105.545 48.6211 105.666 48.047 105.734C47.8782 105.754 47.7161 105.764 47.5607 105.764C46.703 105.764 45.9938 105.514 45.4332 105.015C44.8692 104.511 44.5873 103.868 44.5873 103.085ZM48.4574 102.446C48.3189 101.72 47.9238 101.357 47.272 101.357C46.7587 101.357 46.3686 101.578 46.1019 102.021C46.0208 102.156 45.9583 102.304 45.9144 102.467C45.9955 102.47 46.0951 102.473 46.2133 102.477H46.5882C46.7131 102.48 46.833 102.482 46.9478 102.482H47.2366C47.4088 102.482 47.5776 102.48 47.7431 102.477L48.1585 102.462C48.2699 102.458 48.3696 102.453 48.4574 102.446Z" fill="#0E0E0E"/>
<circle cx="35.0132" cy="32.906" r="32.906" fill="#006837"/>
<path d="M35.0942 16.2099L32.1776 25.7402C33.0829 27.6982 34.0417 29.7625 35.0955 31.7238C36.1357 29.7858 37.0862 27.7398 38.0107 25.7402L35.0942 16.2099Z" fill="white"/>
<path d="M40.0374 26.4705C38.8892 28.9542 37.7044 31.5161 36.3419 33.905C37.1355 35.203 37.9836 36.4104 38.9006 37.4554C40.1524 36.02 41.3682 34.5046 42.5636 32.9948L45.3543 17.1952C43.5081 18.9625 41.8105 22.6347 40.0374 26.4705Z" fill="white"/>
<path d="M25.2736 33.4811C22.2637 29.6704 19.3874 26.0289 16.8582 24.7242L24.2748 42.3383C26.1123 46.7024 30.3592 49.5222 35.0942 49.5222C37.4907 49.5222 39.7623 48.7998 41.6596 47.5207C35.2111 46.0631 29.9658 39.4217 25.2736 33.4811Z" fill="white"/>
<path d="M30.1511 26.4707C28.3778 22.6347 26.6803 18.9626 24.8341 17.1953L27.6247 32.9948C29.9607 35.9448 32.4412 38.999 35.0943 41.3698C35.8979 40.6522 36.6829 39.8749 37.4528 39.0569C34.4033 35.6671 32.1528 30.8009 30.1511 26.4707Z" fill="white"/>
<path d="M44.9148 33.4812C42.3509 36.7273 39.7082 40.073 36.7682 42.7502C38.9908 44.4245 41.3321 45.5356 43.8066 45.6565C44.6743 44.6947 45.3913 43.5791 45.9137 42.3383L53.3303 24.7242C50.8011 26.0289 47.9247 29.6705 44.9148 33.4812Z" fill="white"/>
</svg>
