<svg width="80" height="41" viewBox="0 0 80 41" fill="none" xmlns="http://www.w3.org/2000/svg">
<g filter="url(#filter0_b_2148_276)">
<circle cx="35.4165" cy="11.2358" r="2.75" fill="#0E0E0E"/>
<circle cx="44.5835" cy="11.2358" r="2.75" fill="#0E0E0E"/>
<path d="M17.2754 29.7476C16.4707 29.7476 15.8379 30.0327 15.377 30.603C14.916 31.1733 14.6855 31.9604 14.6855 32.9644C14.6855 34.0151 14.9062 34.8101 15.3477 35.3491C15.793 35.8882 16.4355 36.1577 17.2754 36.1577C17.6387 36.1577 17.9902 36.1226 18.3301 36.0522C18.6699 35.978 19.0234 35.8843 19.3906 35.771V36.9722C18.7188 37.2261 17.957 37.353 17.1055 37.353C15.8516 37.353 14.8887 36.9741 14.2168 36.2163C13.5449 35.4546 13.209 34.3667 13.209 32.9526C13.209 32.062 13.3711 31.2827 13.6953 30.6147C14.0234 29.9468 14.4961 29.4351 15.1133 29.0796C15.7305 28.7241 16.4551 28.5464 17.2871 28.5464C18.1621 28.5464 18.9707 28.73 19.7129 29.0972L19.209 30.2632C18.9199 30.1265 18.6133 30.0073 18.2891 29.9058C17.9688 29.8003 17.6309 29.7476 17.2754 29.7476ZM26.5508 37.2358L25.6953 34.8569H22.4199L21.582 37.2358H20.1055L23.3105 28.6343H24.834L28.0391 37.2358H26.5508ZM25.3262 33.6499L24.5234 31.3179C24.4648 31.1616 24.3828 30.9155 24.2773 30.5796C24.1758 30.2437 24.1055 29.9976 24.0664 29.8413C23.9609 30.3218 23.8066 30.8472 23.6035 31.4175L22.8301 33.6499H25.3262ZM32.1289 37.2358H30.7285V29.8706H28.209V28.6694H34.6484V29.8706H32.1289V37.2358ZM41.2812 37.2358L40.4258 34.8569H37.1504L36.3125 37.2358H34.8359L38.041 28.6343H39.5645L42.7695 37.2358H41.2812ZM40.0566 33.6499L39.2539 31.3179C39.1953 31.1616 39.1133 30.9155 39.0078 30.5796C38.9062 30.2437 38.8359 29.9976 38.7969 29.8413C38.6914 30.3218 38.5371 30.8472 38.334 31.4175L37.5605 33.6499H40.0566ZM43.9004 37.2358V28.6694H45.3008V36.0347H48.9277V37.2358H43.9004ZM58.0098 32.9409C58.0098 34.3354 57.6602 35.4194 56.9609 36.1929C56.2656 36.9663 55.2793 37.353 54.002 37.353C52.709 37.353 51.7148 36.9702 51.0195 36.2046C50.3281 35.4351 49.9824 34.3433 49.9824 32.9292C49.9824 31.5151 50.3301 30.4292 51.0254 29.6714C51.7246 28.9136 52.7207 28.5347 54.0137 28.5347C55.2871 28.5347 56.2715 28.9194 56.9668 29.689C57.6621 30.4585 58.0098 31.5425 58.0098 32.9409ZM51.4707 32.9409C51.4707 33.9956 51.6836 34.7964 52.1094 35.3433C52.5352 35.8862 53.166 36.1577 54.002 36.1577C54.834 36.1577 55.4609 35.8882 55.8828 35.3491C56.3086 34.8101 56.5215 34.0073 56.5215 32.9409C56.5215 31.8901 56.3105 31.0933 55.8887 30.5503C55.4707 30.0073 54.8457 29.7358 54.0137 29.7358C53.1738 29.7358 52.5391 30.0073 52.1094 30.5503C51.6836 31.0933 51.4707 31.8901 51.4707 32.9409ZM63.3535 32.5894H66.5059V36.8901C65.9902 37.0581 65.4941 37.1772 65.0176 37.2476C64.5449 37.3179 64.0332 37.353 63.4824 37.353C62.1855 37.353 61.1855 36.9702 60.4824 36.2046C59.7793 35.4351 59.4277 34.3511 59.4277 32.9526C59.4277 31.5737 59.8242 30.4956 60.6172 29.7183C61.4102 28.937 62.502 28.5464 63.8926 28.5464C64.7871 28.5464 65.6348 28.7183 66.4355 29.062L65.9434 30.228C65.248 29.9077 64.5527 29.7476 63.8574 29.7476C62.9434 29.7476 62.2207 30.0347 61.6895 30.6089C61.1582 31.1831 60.8926 31.9683 60.8926 32.9644C60.8926 34.0112 61.1309 34.8081 61.6074 35.355C62.0879 35.8979 62.7773 36.1694 63.6758 36.1694C64.1289 36.1694 64.6133 36.1128 65.1289 35.9995V33.7905H63.3535V32.5894Z" fill="black"/>
</g>
<defs>
<filter id="filter0_b_2148_276" x="-8" y="-7.76416" width="96" height="56" filterUnits="userSpaceOnUse" color-interpolation-filters="sRGB">
<feFlood flood-opacity="0" result="BackgroundImageFix"/>
<feGaussianBlur in="BackgroundImageFix" stdDeviation="4"/>
<feComposite in2="SourceAlpha" operator="in" result="effect1_backgroundBlur_2148_276"/>
<feBlend mode="normal" in="SourceGraphic" in2="effect1_backgroundBlur_2148_276" result="shape"/>
</filter>
</defs>
</svg>
