<svg width="28" height="28" viewBox="0 0 28 28" fill="none" xmlns="http://www.w3.org/2000/svg">
<path d="M0.75 10.4C0.75 9.26752 0.750583 8.46326 0.802006 7.83388C0.852713 7.21325 0.949092 6.829 1.10423 6.52453C1.41582 5.913 1.913 5.41582 2.52453 5.10423C2.829 4.94909 3.21325 4.85271 3.83388 4.80201C4.46326 4.75058 5.26752 4.75 6.4 4.75H21.6C22.7325 4.75 23.5367 4.75058 24.1661 4.80201C24.7867 4.85271 25.171 4.94909 25.4755 5.10423C26.087 5.41582 26.5842 5.913 26.8958 6.52453C27.0509 6.829 27.1473 7.21325 27.198 7.83388C27.2494 8.46326 27.25 9.26752 27.25 10.4V17.6C27.25 18.7325 27.2494 19.5367 27.198 20.1661C27.1473 20.7867 27.0509 21.171 26.8958 21.4755C26.5842 22.087 26.087 22.5842 25.4755 22.8958C25.171 23.0509 24.7867 23.1473 24.1661 23.198C23.5367 23.2494 22.7325 23.25 21.6 23.25H6.4C5.26752 23.25 4.46326 23.2494 3.83388 23.198C3.21325 23.1473 2.829 23.0509 2.52453 22.8958C1.913 22.5842 1.41582 22.087 1.10423 21.4755C0.949092 21.171 0.852713 20.7867 0.802006 20.1661C0.750583 19.5367 0.75 18.7325 0.75 17.6V10.4Z" stroke="black" stroke-width="1.5"/>
<path d="M2 6L10.326 15.0198C12.3058 17.1646 15.6942 17.1646 17.674 15.0198L26 6" stroke="black" stroke-width="1.5"/>
</svg>
