<svg width="40" height="45" viewBox="0 0 40 45" fill="none" xmlns="http://www.w3.org/2000/svg">
<g clip-path="url(#clip0_1535_837)">
<path fill-rule="evenodd" clip-rule="evenodd" d="M40 38.4C40 41.9346 37.1346 44.8 33.6 44.8H6.4C2.86538 44.8 0 41.9346 0 38.4V7.2C0 3.66538 2.86538 0.799999 6.4 0.799999H33.6C37.1346 0.799999 40 3.66538 40 7.2V38.4ZM38.8 28.2V9.4H1.2V28.2H38.8ZM1.2 29.4H38.8V38.4C38.8 41.2719 36.4719 43.6 33.6 43.6H6.4C3.52812 43.6 1.2 41.2719 1.2 38.4V29.4ZM1.2 8.2V7.2C1.2 4.32812 3.52812 2 6.4 2H33.6C36.4719 2 38.8 4.32812 38.8 7.2V8.2H1.2Z" fill="#0E0E0E"/>
<path d="M8.05 34.4C8.05 35.3113 7.31127 36.05 6.4 36.05C5.48873 36.05 4.75 35.3113 4.75 34.4C4.75 33.4887 5.48873 32.75 6.4 32.75C7.31127 32.75 8.05 33.4887 8.05 34.4Z" stroke="#0E0E0E" stroke-width="1.5"/>
<path d="M35.25 34.4C35.25 35.3113 34.5112 36.05 33.6 36.05C32.6887 36.05 31.95 35.3113 31.95 34.4C31.95 33.4887 32.6887 32.75 33.6 32.75C34.5112 32.75 35.25 33.4887 35.25 34.4Z" stroke="#0E0E0E" stroke-width="1.5"/>
<path d="M12.6929 38.4V37.6909L14.3497 36.1568C14.4906 36.0205 14.6088 35.8977 14.7043 35.7886C14.8012 35.6795 14.8747 35.5727 14.9247 35.4682C14.9747 35.3621 14.9997 35.2477 14.9997 35.125C14.9997 34.9886 14.9687 34.8712 14.9066 34.7727C14.8444 34.6727 14.7596 34.5962 14.652 34.5432C14.5444 34.4886 14.4225 34.4614 14.2861 34.4614C14.1437 34.4614 14.0194 34.4901 13.9134 34.5477C13.8073 34.6053 13.7255 34.6879 13.6679 34.7955C13.6103 34.903 13.5816 35.0311 13.5816 35.1795H12.6475C12.6475 34.875 12.7164 34.6106 12.8543 34.3864C12.9922 34.1621 13.1853 33.9886 13.4338 33.8659C13.6823 33.7432 13.9687 33.6818 14.2929 33.6818C14.6262 33.6818 14.9164 33.7409 15.1634 33.8591C15.4119 33.9758 15.605 34.1379 15.7429 34.3455C15.8808 34.553 15.9497 34.7909 15.9497 35.0591C15.9497 35.2348 15.9149 35.4083 15.8452 35.5795C15.777 35.7508 15.655 35.9409 15.4793 36.15C15.3035 36.3576 15.0558 36.6068 14.7361 36.8977L14.0566 37.5636V37.5955H16.0111V38.4H12.6929Z" fill="#0E0E0E"/>
<path d="M17.2992 37.8591C17.1492 37.8591 17.0204 37.8061 16.9128 37.7C16.8067 37.5939 16.7537 37.4651 16.7537 37.3136C16.7537 37.1651 16.8067 37.0379 16.9128 36.9318C17.0204 36.8258 17.1492 36.7727 17.2992 36.7727C17.4446 36.7727 17.5719 36.8258 17.681 36.9318C17.7901 37.0379 17.8446 37.1651 17.8446 37.3136C17.8446 37.4136 17.8189 37.5053 17.7673 37.5886C17.7173 37.6705 17.6514 37.7364 17.5696 37.7864C17.4878 37.8348 17.3977 37.8591 17.2992 37.8591ZM17.2992 35.575C17.1492 35.575 17.0204 35.522 16.9128 35.4159C16.8067 35.3098 16.7537 35.1811 16.7537 35.0295C16.7537 34.8811 16.8067 34.7545 16.9128 34.65C17.0204 34.5439 17.1492 34.4909 17.2992 34.4909C17.4446 34.4909 17.5719 34.5439 17.681 34.65C17.7901 34.7545 17.8446 34.8811 17.8446 35.0295C17.8446 35.1311 17.8189 35.2235 17.7673 35.3068C17.7173 35.3886 17.6514 35.4538 17.5696 35.5023C17.4878 35.5508 17.3977 35.575 17.2992 35.575Z" fill="#0E0E0E"/>
<path d="M20.4554 38.5023C20.0645 38.5008 19.7281 38.4045 19.4463 38.2136C19.166 38.0227 18.9501 37.7462 18.7986 37.3841C18.6486 37.022 18.5744 36.5864 18.5759 36.0773C18.5759 35.5697 18.6509 35.1371 18.8009 34.7795C18.9524 34.422 19.1683 34.15 19.4486 33.9636C19.7304 33.7758 20.066 33.6818 20.4554 33.6818C20.8448 33.6818 21.1797 33.7758 21.46 33.9636C21.7418 34.1515 21.9584 34.4242 22.11 34.7818C22.2615 35.1379 22.3365 35.5697 22.335 36.0773C22.335 36.5879 22.2592 37.0242 22.1077 37.3864C21.9577 37.7485 21.7425 38.025 21.4622 38.2159C21.1819 38.4068 20.8463 38.5023 20.4554 38.5023ZM20.4554 37.6864C20.7221 37.6864 20.935 37.5523 21.0941 37.2841C21.2531 37.0159 21.3319 36.6136 21.3304 36.0773C21.3304 35.7242 21.2941 35.4303 21.2213 35.1955C21.1501 34.9606 21.0486 34.7841 20.9168 34.6659C20.7865 34.5477 20.6327 34.4886 20.4554 34.4886C20.1903 34.4886 19.9781 34.6212 19.8191 34.8864C19.66 35.1515 19.5797 35.5485 19.5781 36.0773C19.5781 36.4348 19.6137 36.7333 19.685 36.9727C19.7577 37.2106 19.86 37.3894 19.9918 37.5091C20.1236 37.6273 20.2781 37.6864 20.4554 37.6864Z" fill="#0E0E0E"/>
<path d="M24.823 38.4636C24.5836 38.4621 24.3526 38.422 24.1298 38.3432C23.9086 38.2644 23.7102 38.1364 23.5344 37.9591C23.3586 37.7818 23.2192 37.547 23.1162 37.2545C23.0147 36.9621 22.9639 36.603 22.9639 36.1773C22.9655 35.7864 23.0102 35.4371 23.098 35.1295C23.1874 34.8205 23.3147 34.5583 23.4798 34.3432C23.6465 34.128 23.8458 33.9644 24.0776 33.8523C24.3094 33.7386 24.5692 33.6818 24.8571 33.6818C25.1677 33.6818 25.442 33.7424 25.6798 33.8636C25.9177 33.9833 26.1086 34.1462 26.2526 34.3523C26.398 34.5583 26.4859 34.7894 26.5162 35.0455H25.5458C25.5079 34.8833 25.4283 34.7561 25.3071 34.6636C25.1859 34.5712 25.0359 34.525 24.8571 34.525C24.5541 34.525 24.3238 34.6568 24.1662 34.9205C24.0102 35.1841 23.9306 35.5424 23.9276 35.9955H23.9594C24.0291 35.8576 24.123 35.7401 24.2412 35.6432C24.3609 35.5447 24.4965 35.4697 24.648 35.4182C24.8011 35.3651 24.9624 35.3386 25.1321 35.3386C25.4079 35.3386 25.6533 35.4038 25.8685 35.5341C26.0836 35.6629 26.2533 35.8401 26.3776 36.0659C26.5018 36.2917 26.5639 36.55 26.5639 36.8409C26.5639 37.1561 26.4905 37.4364 26.3435 37.6818C26.198 37.9273 25.9942 38.1197 25.7321 38.2591C25.4715 38.397 25.1685 38.4651 24.823 38.4636ZM24.8185 37.6909C24.97 37.6909 25.1056 37.6545 25.2253 37.5818C25.345 37.5091 25.4389 37.4106 25.5071 37.2864C25.5753 37.1621 25.6094 37.0227 25.6094 36.8682C25.6094 36.7136 25.5753 36.575 25.5071 36.4523C25.4405 36.3295 25.348 36.2318 25.2298 36.1591C25.1117 36.0864 24.9768 36.05 24.8253 36.05C24.7117 36.05 24.6064 36.0712 24.5094 36.1136C24.4139 36.1561 24.3298 36.2151 24.2571 36.2909C24.1859 36.3667 24.1298 36.4545 24.0889 36.5545C24.048 36.653 24.0276 36.7583 24.0276 36.8705C24.0276 37.0205 24.0617 37.1576 24.1298 37.2818C24.1995 37.4061 24.2935 37.5053 24.4117 37.5795C24.5314 37.6538 24.667 37.6909 24.8185 37.6909Z" fill="#0E0E0E"/>
</g>
<defs>
<clipPath id="clip0_1535_837">
<rect width="40" height="44.8" fill="white"/>
</clipPath>
</defs>
</svg>
