<svg width="40" height="45" viewBox="0 0 40 45" fill="none" xmlns="http://www.w3.org/2000/svg">
<g clip-path="url(#clip0_1535_851)">
<path fill-rule="evenodd" clip-rule="evenodd" d="M27.8 3.2C27.8 1.54315 29.1432 0.200001 30.8 0.200001C32.4569 0.200001 33.8 1.54315 33.8 3.2V3.6C33.8 5.05228 32.7681 6.26353 31.3975 6.54051C31.3236 8.57409 29.6517 10.2 27.6 10.2H22.8C21.3641 10.2 20.2 11.3641 20.2 12.8V13.0227C24.0295 13.314 27.086 16.3706 27.3773 20.2H28C30.0987 20.2 31.8 21.9013 31.8 24V40.8C31.8 42.8987 30.0987 44.6 28 44.6H11.2C9.10134 44.6 7.40002 42.8987 7.40002 40.8V24C7.40002 21.9013 9.10134 20.2 11.2 20.2H11.8228C12.1141 16.3706 15.1706 13.314 19 13.0227V12.8C19 10.7013 20.7013 9 22.8 9H27.6C28.9893 9 30.124 7.91044 30.1964 6.53924C28.8288 6.25986 27.8 5.05008 27.8 3.6V3.2ZM13.0269 20.2C13.3301 16.8361 16.1572 14.2 19.6 14.2C23.0428 14.2 25.87 16.8361 26.1731 20.2H13.0269ZM11.2 21.4C9.76408 21.4 8.60002 22.5641 8.60002 24V40.8C8.60002 42.2359 9.76408 43.4 11.2 43.4H28C29.436 43.4 30.6 42.2359 30.6 40.8V24C30.6 22.5641 29.436 21.4 28 21.4H11.2ZM30.8 1.4C29.8059 1.4 29 2.20589 29 3.2V3.6C29 4.59411 29.8059 5.4 30.8 5.4C31.7941 5.4 32.6 4.59411 32.6 3.6V3.2C32.6 2.20589 31.7941 1.4 30.8 1.4Z" fill="#0E0E0E"/>
<path fill-rule="evenodd" clip-rule="evenodd" d="M17.5134 26.3971C16.7753 26.7558 16.1546 27.4805 15.7764 28.5428C15.3309 29.7942 15.2663 31.425 15.7596 33.1187C16.253 34.8123 17.1833 36.1534 18.2312 36.9697C18.7722 37.3912 19.3219 37.6592 19.853 37.7834C19.7633 37.6737 19.6768 37.5571 19.5943 37.4337C18.9039 36.4022 18.4511 34.8633 18.6015 32.7573C18.7571 30.5789 18.5281 28.9871 18.196 27.8945C17.9781 27.1778 17.722 26.694 17.5134 26.3971ZM21.5445 37.6668C21.2596 37.522 20.9118 37.2449 20.5915 36.7663C20.0771 35.9978 19.6632 34.7367 19.7985 32.8427C19.9629 30.5411 19.7253 28.7996 19.3441 27.5455C19.175 26.9893 18.9746 26.5195 18.7628 26.1372C19.4675 26.1624 20.2263 26.4517 20.9689 27.0302C22.0167 27.8466 22.9471 29.1877 23.4404 30.8813C23.9338 32.5749 23.8691 34.2058 23.4236 35.4571C23.0214 36.587 22.3448 37.335 21.5445 37.6668ZM22 38.7773C24.4931 37.7504 25.6514 34.1806 24.5925 30.5457C23.4804 26.7279 20.3436 24.2841 17.5864 25.0873C14.8291 25.8905 13.4954 29.6365 14.6075 33.4543C15.7076 37.2307 18.7886 39.6627 21.5238 38.9376C21.5538 38.9297 21.5838 38.9214 21.6137 38.9127C21.7458 38.8742 21.8746 38.829 22 38.7773Z" fill="#0E0E0E"/>
</g>
<defs>
<clipPath id="clip0_1535_851">
<rect width="40" height="44.8" fill="white"/>
</clipPath>
</defs>
</svg>
