<svg width="40" height="45" viewBox="0 0 40 45" fill="none" xmlns="http://www.w3.org/2000/svg">
<path fill-rule="evenodd" clip-rule="evenodd" d="M15.4269 4.06749C16.6041 3.17591 18.1549 2.6 20.1723 2.6C22.1897 2.6 23.7404 3.17591 24.9176 4.06749C26.0871 4.95324 26.853 6.12359 27.3553 7.26484C27.8574 8.40569 28.1055 9.53838 28.229 10.3802C28.291 10.8026 28.3221 11.1558 28.3378 11.4053C28.3457 11.5302 28.3497 11.6294 28.3517 11.6988C28.3527 11.7334 28.3532 11.7606 28.3535 11.7799L28.3538 11.8026L28.3538 11.8094L28.3538 11.8125C28.3538 11.8128 28.3538 11.8131 27.7538 11.8131L28.3538 11.8125C28.3538 14.3561 27.8222 15.7539 27.2242 17.3253C27.0746 17.7186 26.9208 18.1228 26.7701 18.5586C26.0342 20.6874 25.2787 23.7773 25.2529 30.4787L31.4883 33.8963C31.6805 34.0016 31.8 34.2033 31.8 34.4224V38.8L31.7834 38.869L31.2 38.729C31.7834 38.869 31.7831 38.87 31.7829 38.871L31.7824 38.8731L31.7813 38.8775L31.7788 38.887C31.778 38.8901 31.7771 38.8934 31.7761 38.8968C31.775 38.9007 31.7738 38.9048 31.7725 38.9091C31.7677 38.9253 31.7615 38.9442 31.7538 38.9655C31.7383 39.0082 31.7165 39.0607 31.6861 39.1213C31.6251 39.243 31.5305 39.3953 31.3851 39.5662C31.0939 39.9088 30.6082 40.3156 29.8024 40.7048C28.2007 41.4783 25.298 42.2 20 42.2C14.7019 42.2 11.7992 41.4783 10.1975 40.7048C9.39167 40.3156 8.90605 39.9088 8.61476 39.5662C8.46942 39.3953 8.37479 39.243 8.31377 39.1213C8.28336 39.0607 8.26157 39.0082 8.2461 38.9655C8.23838 38.9442 8.23225 38.9253 8.22741 38.9091C8.225 38.9011 8.22291 38.8937 8.22111 38.887L8.21861 38.8775L8.21752 38.8731L8.21701 38.871C8.21677 38.87 8.21653 38.869 8.79995 38.729L8.21653 38.869L8.19995 38.8V34.4224C8.19995 34.1987 8.32442 33.9936 8.52285 33.8902L15.0914 30.47C15.0629 24.3147 14.311 21.313 13.5721 19.0902C13.4435 18.7031 13.3131 18.3347 13.1853 17.9735C12.5572 16.1985 11.9907 14.5976 11.9907 11.8131H12.5907C11.9907 11.8131 11.9907 11.8134 11.9907 11.8131L11.9907 11.8117L11.9907 11.8094L11.9908 11.8026L11.991 11.7799C11.9913 11.7606 11.9918 11.7334 11.9928 11.6988C11.9949 11.6294 11.9989 11.5302 12.0067 11.4053C12.0224 11.1558 12.0536 10.8026 12.1155 10.3802C12.239 9.53838 12.4871 8.40569 12.9892 7.26484C13.4915 6.12359 14.2574 4.95324 15.4269 4.06749ZM13.1907 11.8131C13.1907 14.3804 13.6888 15.7916 14.3071 17.5437C14.4375 17.9132 14.5733 18.2978 14.7109 18.7117C15.4971 21.077 16.2701 24.2252 16.2918 30.5593C16.3003 30.5659 16.3092 30.5727 16.3184 30.5796C16.4682 30.6931 16.7047 30.8516 17.0332 31.0126C17.6877 31.3334 18.7178 31.6692 20.1723 31.6692C21.6268 31.6692 22.6568 31.3334 23.3113 31.0126C23.6398 30.8516 23.8764 30.6931 24.0262 30.5796C24.0353 30.5727 24.0441 30.5659 24.0527 30.5593C24.0727 23.6994 24.8444 20.4563 25.636 18.1666C25.803 17.6833 25.9667 17.2519 26.121 16.8451C26.7038 15.3086 27.1537 14.1225 27.1538 11.8136C27.1538 11.8135 27.1538 11.8137 27.1538 11.8136L27.1538 11.811L27.1536 11.7969C27.1534 11.7835 27.153 11.7624 27.1522 11.734C27.1505 11.6771 27.1471 11.5913 27.1402 11.4806C27.1262 11.2592 27.0982 10.9394 27.0417 10.5544C26.9283 9.78124 26.7025 8.76066 26.2569 7.74824C25.8115 6.73622 25.1559 5.7533 24.1931 5.0241C23.238 4.30072 21.9456 3.8 20.1723 3.8C18.3989 3.8 17.1065 4.30072 16.1514 5.0241C15.1886 5.7533 14.533 6.73622 14.0876 7.74824C13.642 8.76066 13.4163 9.78124 13.3028 10.5544C13.2463 10.9394 13.2183 11.2592 13.2043 11.4806C13.1974 11.5913 13.194 11.6771 13.1923 11.734C13.1915 11.7624 13.1911 11.7835 13.1909 11.7969L13.1907 11.811L13.1907 11.8131ZM24.7233 31.5568C24.5186 31.7094 24.2256 31.9009 23.8394 32.0902C23.0292 32.4872 21.8193 32.8692 20.1723 32.8692C18.5252 32.8692 17.3153 32.4872 16.5051 32.0902C16.1141 31.8985 15.8186 31.7046 15.6136 31.5511L9.72345 34.618C9.94707 34.8131 10.2992 35.0598 10.8426 35.3148C12.2621 35.9811 14.9645 36.6935 20 36.6935C25.0354 36.6935 27.7378 35.9811 29.1573 35.3148C29.7108 35.055 30.0658 34.8039 30.2888 34.6072L24.7233 31.5568ZM30.6 35.8781C30.3454 36.0501 30.038 36.227 29.6672 36.4011C28.0282 37.1703 25.1307 37.8935 20 37.8935C14.8692 37.8935 11.9717 37.1703 10.3327 36.4011C9.9619 36.227 9.6545 36.0501 9.39995 35.8781V38.6087C9.42227 38.6484 9.4621 38.7102 9.52899 38.7889C9.69539 38.9846 10.039 39.2956 10.7194 39.6242C12.09 40.2861 14.7872 41 20 41C25.2127 41 27.9099 40.2861 29.2806 39.6242C29.9609 39.2956 30.3045 38.9846 30.4709 38.7889C30.5378 38.7102 30.5776 38.6484 30.6 38.6087V35.8781Z" fill="#0E0E0E"/>
</svg>
