<svg width="512" height="467" viewBox="0 0 512 467" fill="none" xmlns="http://www.w3.org/2000/svg">
<path fill-rule="evenodd" clip-rule="evenodd" d="M255.534 0L214.666 133.544C227.351 160.981 240.786 189.906 255.553 217.389C270.129 190.234 283.448 161.563 296.402 133.544L255.534 0ZM324.801 143.777C308.712 178.581 292.111 214.479 273.019 247.953C284.138 266.142 296.023 283.06 308.872 297.704C326.413 277.59 343.449 256.356 360.2 235.2L399.304 13.8066C373.434 38.5714 349.648 90.0275 324.801 143.777ZM117.918 242.008L117.922 242.013L117.934 242.029C183.68 325.268 257.176 418.32 347.531 438.743C320.944 456.668 289.113 466.79 255.534 466.79C189.184 466.79 129.673 427.277 103.925 366.126L0 119.307C35.4402 137.588 75.7433 188.614 117.918 242.008ZM186.269 143.78L186.268 143.777C161.421 90.0273 137.634 38.5724 111.765 13.8079L150.869 235.2C183.602 276.536 218.359 319.333 255.537 352.555C266.797 342.499 277.797 331.607 288.584 320.145C245.853 272.645 214.319 204.458 186.269 143.78ZM278.988 371.897C320.185 334.383 357.215 287.5 393.143 242.014C435.319 188.617 475.624 137.589 511.066 119.307L407.139 366.126C399.82 383.512 389.773 399.145 377.614 412.621C342.939 410.928 310.132 395.359 278.988 371.897Z" fill="#DFD7CC"/>
</svg>
