<svg width="551" height="507" viewBox="0 0 551 507" fill="none" xmlns="http://www.w3.org/2000/svg">
<path fill-rule="evenodd" clip-rule="evenodd" d="M551 0H0V507H551V0ZM275.534 20L234.666 153.544C247.351 180.981 260.786 209.906 275.553 237.389C290.129 210.234 303.448 181.563 316.402 153.544L275.534 20ZM344.801 163.777C328.712 198.581 312.111 234.479 293.019 267.953C304.138 286.142 316.022 303.06 328.872 317.704C346.413 297.59 363.449 276.356 380.2 255.2L419.304 33.8066C393.434 58.5715 369.648 110.028 344.801 163.777ZM137.918 262.008L137.922 262.013L137.934 262.029C203.68 345.268 277.177 438.32 367.531 458.743C340.944 476.668 309.114 486.79 275.534 486.79C209.184 486.79 149.673 447.277 123.925 386.126L20 139.307C55.4402 157.588 95.7434 208.613 137.918 262.008ZM206.269 163.78L206.268 163.778C181.421 110.027 157.635 58.5724 131.765 33.8079L170.869 255.2C203.602 296.536 238.359 339.333 275.537 372.555C286.797 362.499 297.797 351.607 308.584 340.145C265.853 292.645 234.319 224.458 206.269 163.78ZM298.988 391.897C340.185 354.383 377.215 307.5 413.143 262.014C455.319 208.617 495.624 157.589 531.065 139.307L427.139 386.126C419.82 403.512 409.773 419.145 397.614 432.621C362.939 430.928 330.132 415.359 298.988 391.897Z" fill="#DFD7CC"/>
</svg>
