<svg width="203" height="82" viewBox="0 0 203 82" fill="none" xmlns="http://www.w3.org/2000/svg">
<path d="M9.63863 46.9195C7.66501 46.7359 5.35862 46.6441 2.71947 46.6441H0L14.9743 4.68162C15.6398 2.79979 15.9726 1.70971 15.9726 1.41137C15.9726 1.09008 15.9611 0.895016 15.9382 0.826168L15.9726 0.757321C17.4643 0.826168 19.0478 0.860592 20.7231 0.860592C22.1 0.860592 23.7523 0.837643 25.6801 0.791745L25.7145 0.860592C25.6686 0.952388 25.6456 1.07861 25.6456 1.23925C25.6456 1.67529 25.9899 2.83422 26.6783 4.71604L41.9625 46.7474C41.5035 46.7244 40.9642 46.7129 40.3445 46.7129C40.3445 46.7129 39.7479 46.69 38.5545 46.6441C37.9808 46.6441 37.4644 46.6441 37.0055 46.6441H31.6698L28.434 36.7301H12.8745L9.63863 46.9195ZM25.7489 28.4684L20.5509 12.4614L15.4907 28.4684H25.7489Z" fill="#0E0E0E"/>
<path d="M85.2674 19.0363C84.8314 19.8166 84.6134 21.6869 84.6134 24.6474V35.3187C84.6134 38.5545 82.9381 41.3658 79.5875 43.7525C76.1222 46.2539 71.8766 47.5047 66.8508 47.5047C59.8742 47.5047 54.3091 45.313 50.1553 40.9297C46.1392 36.753 44.1312 31.4288 44.1312 24.9572C44.1312 18.0724 46.1736 12.3352 50.2586 7.74533C54.8254 2.58178 61.1135 0 69.1227 0C74.4699 0 78.704 1.03271 81.8251 3.09813L81.2743 13.2531L80.9989 13.322C80.1957 11.9221 78.6122 10.7746 76.2484 9.87959C73.9994 9.03048 71.6357 8.60592 69.1572 8.60592C66.7016 8.60592 64.5444 8.99605 62.6855 9.77632C60.8496 10.5566 59.289 11.6696 58.0039 13.1154C55.2959 16.0759 53.9419 19.9887 53.9419 24.8539C53.9419 29.0995 55.1353 32.5074 57.522 35.0777C59.9087 37.6251 62.9839 38.8988 66.7475 38.8988C70.9013 38.8988 73.7011 37.8201 75.1469 35.6629C75.6059 34.9745 75.8354 34.1942 75.8354 33.3221V27.6078H71.3947C69.008 27.6078 67.7114 27.8143 67.5048 28.2274L67.4016 28.193L67.0917 19.2084C67.7343 19.392 70.339 19.4838 74.9059 19.4838H78.9679C81.4923 19.4838 83.5577 19.3117 85.1642 18.9674L85.2674 19.0363Z" fill="#0E0E0E"/>
<path d="M97.8321 46.9195C95.8585 46.7359 93.5521 46.6441 90.9129 46.6441H88.1935L103.168 4.68162C103.833 2.79979 104.166 1.70971 104.166 1.41137C104.166 1.09008 104.155 0.895016 104.132 0.826168L104.166 0.757321C105.658 0.826168 107.241 0.860592 108.917 0.860592C110.293 0.860592 111.946 0.837643 113.874 0.791745L113.908 0.860592C113.862 0.952388 113.839 1.07861 113.839 1.23925C113.839 1.67529 114.183 2.83422 114.872 4.71604L130.156 46.7474C129.697 46.7244 129.158 46.7129 128.538 46.7129C128.538 46.7129 127.941 46.69 126.748 46.6441C126.174 46.6441 125.658 46.6441 125.199 46.6441H119.863L116.627 36.7301H101.068L97.8321 46.9195ZM113.942 28.4684L108.744 12.4614L103.684 28.4684H113.942Z" fill="#0E0E0E"/>
<path d="M155.32 46.7818C154.585 46.69 153.38 46.6441 151.705 46.6441H147.919C147.299 46.6441 146.737 46.667 146.232 46.7129L146.197 46.6441C146.289 46.4834 146.335 46.2998 146.335 46.0933C146.335 45.8868 146.312 45.6687 146.266 45.4393C146.243 45.2098 146.151 44.7967 145.991 44.2C145.83 43.6033 145.578 42.7427 145.233 41.6182L143.788 37.0055L130.982 0.722897C132.405 0.814694 134.218 0.860592 136.421 0.860592C138.624 0.860592 140.036 0.768795 140.655 0.585202L151.017 31.8763L160.105 0.722897C161.481 0.814694 163.18 0.860592 165.199 0.860592C167.953 0.860592 169.56 0.768795 170.019 0.585202L157.454 36.9022C157.454 36.9022 157.052 38.2447 156.249 40.9297C155.584 43.2247 155.251 44.7164 155.251 45.4048C155.251 46.0704 155.297 46.4949 155.388 46.6785L155.32 46.7818Z" fill="#0E0E0E"/>
<path d="M199.864 38.3824C201.287 38.3824 202.274 38.2447 202.824 37.9693L202.962 38.0037L202.618 46.6441H176.834V0.619626C177.454 0.665524 178.143 0.699948 178.9 0.722897L181.309 0.791745C182.916 0.837643 184.66 0.860592 186.542 0.860592C191.797 0.860592 196.995 0.768795 202.136 0.585202C201.883 2.60472 201.757 5.30125 201.757 8.67477C201.757 9.04195 201.78 9.31734 201.826 9.50093L201.757 9.60421C200.564 9.25997 198.866 9.08785 196.662 9.08785H185.819V17.8659H193.977C196.502 17.8659 198.016 17.797 198.521 17.6593L198.625 26.162C197.523 26.0472 196.1 25.9899 194.356 25.9899H185.819V38.3824H199.864Z" fill="#0E0E0E"/>
<path d="M71.6595 80.355C70.5629 81.4516 68.8444 82 66.5042 82C64.2326 82 62.3771 81.3097 60.9377 79.929C59.4787 78.5288 58.7493 76.6684 58.7493 74.3478C58.7493 71.988 59.469 70.0493 60.9083 68.5316C62.4358 66.9356 64.4774 66.1375 67.033 66.1375C68.8444 66.1375 70.3621 66.5341 71.5861 67.3272L70.9986 71.0872L70.8958 71.0725C70.4258 70.5046 69.9313 70.1325 69.4123 69.9563C68.5703 69.6625 67.7282 69.5157 66.8861 69.5157C66.044 69.5157 65.3831 69.6234 64.9033 69.8388C64.4235 70.0542 64.0123 70.3528 63.6696 70.7347C62.9841 71.518 62.6414 72.5559 62.6414 73.8484C62.6414 76.1397 63.4346 77.6378 65.0208 78.3428C65.5691 78.5778 66.1468 78.6953 66.7539 78.6953C67.3708 78.6953 67.9044 78.6414 68.3549 78.5337C68.8151 78.426 69.2312 78.2792 69.6033 78.0931C70.3964 77.7014 70.9349 77.2461 71.2189 76.7272L71.3217 76.7712L71.6595 80.355Z" fill="#0E0E0E"/>
<path d="M73.613 74.1863C73.613 73.1092 73.7941 72.0811 74.1564 71.1019C74.5285 70.1129 75.0572 69.2513 75.7426 68.5169C77.2408 66.9307 79.1844 66.1375 81.5735 66.1375C83.9529 66.1375 85.8427 66.8866 87.2429 68.3847C88.5843 69.8143 89.2551 71.6698 89.2551 73.9513C89.2551 76.2327 88.5648 78.1225 87.1841 79.6206C85.7252 81.2068 83.7913 82 81.3826 82C78.8955 82 76.947 81.2215 75.537 79.6647C74.2543 78.2449 73.613 76.4187 73.613 74.1863ZM77.182 74.0981C77.182 74.715 77.2848 75.3123 77.4904 75.89C77.6961 76.4677 77.9898 76.9622 78.3717 77.3734C79.1844 78.2645 80.2517 78.71 81.5735 78.71C82.7975 78.71 83.762 78.2743 84.467 77.4028C85.1524 76.5607 85.4951 75.4641 85.4951 74.1128C85.4951 72.742 85.1426 71.6355 84.4376 70.7935C83.6836 69.8926 82.6506 69.4422 81.3385 69.4422C80.0069 69.4422 78.9641 69.922 78.2101 70.8816C77.5247 71.7628 77.182 72.835 77.182 74.0981Z" fill="#0E0E0E"/>
<path d="M99.6538 68.1203C99.5754 68.4043 99.5363 69.1191 99.5363 70.2647V71.5572H95.9966V81.7797H92.3982V71.5572H90.2391C90.2489 70.911 90.2587 70.3381 90.2685 69.8388L90.2979 68.2672V68.1203H92.3982V67.2097C92.3982 64.8597 92.9465 62.97 94.0432 61.5404C95.1888 60.0618 96.7653 59.3226 98.7725 59.3226C99.6244 59.3226 100.187 59.3813 100.462 59.4988L100.476 63.1854L100.447 63.2588C100.075 62.8867 99.5999 62.7007 99.0222 62.7007C98.4543 62.7007 97.9941 62.7986 97.6416 62.9944C97.2891 63.1805 96.9905 63.4497 96.7457 63.8022C96.2463 64.5072 95.9966 65.4717 95.9966 66.6957V68.1203H99.6538Z" fill="#0E0E0E"/>
<path d="M109.7 68.1203C109.622 68.4043 109.582 69.1191 109.582 70.2647V71.5572H106.043V81.7797H102.444V71.5572H100.285C100.295 70.911 100.305 70.3381 100.315 69.8388L100.344 68.2672V68.1203H102.444V67.2097C102.444 64.8597 102.993 62.97 104.089 61.5404C105.235 60.0618 106.811 59.3226 108.819 59.3226C109.671 59.3226 110.234 59.3813 110.508 59.4988L110.522 63.1854L110.493 63.2588C110.121 62.8867 109.646 62.7007 109.068 62.7007C108.501 62.7007 108.04 62.7986 107.688 62.9944C107.335 63.1805 107.037 63.4497 106.792 63.8022C106.293 64.5072 106.043 65.4717 106.043 66.6957V68.1203H109.7Z" fill="#0E0E0E"/>
<path d="M111.683 74.2303C111.683 73.0847 111.879 72.0223 112.27 71.0431C112.662 70.064 113.215 69.2072 113.93 68.4728C115.457 66.916 117.455 66.1375 119.922 66.1375C122.008 66.1375 123.682 66.8278 124.946 68.2085C126.189 69.5401 126.811 71.2145 126.811 73.2316C126.811 74.0051 126.752 74.5339 126.635 74.8178C125.655 75.092 123.663 75.2291 120.657 75.2291H115.487C115.741 76.2768 116.334 77.0944 117.264 77.6819C118.194 78.2596 119.403 78.5484 120.892 78.5484C122.449 78.5484 123.785 78.2694 124.901 77.7112C125.195 77.5644 125.416 77.4273 125.562 77.3C125.543 77.7112 125.518 78.1323 125.489 78.5631L125.327 80.8544C124.583 81.3635 123.379 81.716 121.714 81.9118C121.225 81.9706 120.755 82 120.304 82C117.817 82 115.761 81.2754 114.136 79.8262C112.5 78.3673 111.683 76.502 111.683 74.2303ZM122.904 72.3797C122.503 70.2745 121.357 69.2219 119.467 69.2219C117.979 69.2219 116.848 69.8633 116.074 71.146C115.839 71.5376 115.658 71.9685 115.531 72.4384C115.766 72.4482 116.055 72.458 116.397 72.4678H117.484C117.847 72.4776 118.194 72.4825 118.527 72.4825H119.364C119.864 72.4825 120.353 72.4776 120.833 72.4678L122.037 72.4238C122.361 72.414 122.649 72.3993 122.904 72.3797Z" fill="#0E0E0E"/>
<path d="M129.278 74.2303C129.278 73.0847 129.474 72.0223 129.866 71.0431C130.258 70.064 130.811 69.2072 131.526 68.4728C133.053 66.916 135.051 66.1375 137.518 66.1375C139.604 66.1375 141.278 66.8278 142.541 68.2085C143.785 69.5401 144.406 71.2145 144.406 73.2316C144.406 74.0051 144.348 74.5339 144.23 74.8178C143.251 75.092 141.258 75.2291 138.252 75.2291H133.082C133.337 76.2768 133.929 77.0944 134.86 77.6819C135.79 78.2596 136.999 78.5484 138.487 78.5484C140.044 78.5484 141.381 78.2694 142.497 77.7112C142.791 77.5644 143.011 77.4273 143.158 77.3C143.138 77.7112 143.114 78.1323 143.085 78.5631L142.923 80.8544C142.179 81.3635 140.974 81.716 139.31 81.9118C138.82 81.9706 138.35 82 137.9 82C135.413 82 133.357 81.2754 131.731 79.8262C130.096 78.3673 129.278 76.502 129.278 74.2303ZM140.5 72.3797C140.098 70.2745 138.952 69.2219 137.063 69.2219C135.574 69.2219 134.443 69.8633 133.67 71.146C133.435 71.5376 133.254 71.9685 133.126 72.4384C133.361 72.4482 133.65 72.458 133.993 72.4678H135.08C135.442 72.4776 135.79 72.4825 136.123 72.4825H136.96C137.459 72.4825 137.949 72.4776 138.429 72.4678L139.633 72.4238C139.956 72.414 140.245 72.3993 140.5 72.3797Z" fill="#0E0E0E"/>
</svg>
