<svg width="80" height="37" viewBox="0 0 80 37" fill="none" xmlns="http://www.w3.org/2000/svg">
<g filter="url(#filter0_b_2148_281)">
<path d="M33 4.23584H47M36.25 9.23584H33M33 14.2358H47M39.5 9.23584H47" stroke="black" stroke-width="1.5" stroke-linecap="round"/>
<path d="M26.334 33.2358L23.8496 26.0815H23.8027C23.8691 27.144 23.9023 28.1401 23.9023 29.0698V33.2358H22.6309V24.6694H24.6055L26.9844 31.4839H27.0195L29.4688 24.6694H31.4492V33.2358H30.1016V28.9995C30.1016 28.5737 30.1113 28.019 30.1309 27.3354C30.1543 26.6519 30.1738 26.2378 30.1895 26.0933H30.1426L27.5703 33.2358H26.334ZM38.5508 33.2358H33.7051V24.6694H38.5508V25.853H35.1055V28.1851H38.334V29.3569H35.1055V32.0464H38.5508V33.2358ZM47.5449 33.2358H45.8281L41.6152 26.4097H41.5684L41.5977 26.7905C41.6523 27.5171 41.6797 28.1812 41.6797 28.7827V33.2358H40.4082V24.6694H42.1074L46.3086 31.4604H46.3438C46.3359 31.3706 46.3203 31.0444 46.2969 30.4819C46.2734 29.9155 46.2617 29.4741 46.2617 29.1577V24.6694H47.5449V33.2358ZM56.5215 24.6694V30.2124C56.5215 30.8452 56.3848 31.3999 56.1113 31.8765C55.8418 32.3491 55.4492 32.7144 54.9336 32.9722C54.4219 33.2261 53.8086 33.353 53.0938 33.353C52.0312 33.353 51.2051 33.0718 50.6152 32.5093C50.0254 31.9468 49.7305 31.1733 49.7305 30.189V24.6694H51.1367V30.0894C51.1367 30.7964 51.3008 31.3179 51.6289 31.6538C51.957 31.9897 52.4609 32.1577 53.1406 32.1577C54.4609 32.1577 55.1211 31.4644 55.1211 30.0776V24.6694H56.5215Z" fill="black"/>
</g>
<defs>
<filter id="filter0_b_2148_281" x="-8" y="-7.76416" width="96" height="52" filterUnits="userSpaceOnUse" color-interpolation-filters="sRGB">
<feFlood flood-opacity="0" result="BackgroundImageFix"/>
<feGaussianBlur in="BackgroundImageFix" stdDeviation="4"/>
<feComposite in2="SourceAlpha" operator="in" result="effect1_backgroundBlur_2148_281"/>
<feBlend mode="normal" in="SourceGraphic" in2="effect1_backgroundBlur_2148_281" result="shape"/>
</filter>
</defs>
</svg>
