<svg width="406" height="406" viewBox="0 0 406 406" fill="none" xmlns="http://www.w3.org/2000/svg">
<circle cx="203" cy="203" r="203" fill="#006837"/>
<path d="M203.5 100L185.507 158.794C191.092 170.873 197.007 183.607 203.508 195.707C209.925 183.751 215.789 171.129 221.492 158.794L203.5 100Z" fill="white"/>
<path d="M233.995 163.299C226.912 178.621 219.603 194.426 211.197 209.163C216.093 217.17 221.325 224.619 226.982 231.066C234.704 222.211 242.205 212.862 249.58 203.548L266.795 106.078C255.406 116.981 244.934 139.635 233.995 163.299Z" fill="white"/>
<path d="M142.916 206.548C124.347 183.04 106.603 160.574 91 152.526L136.754 261.189C148.089 288.111 174.289 305.507 203.5 305.507C218.284 305.507 232.297 301.05 244.002 293.159C204.221 284.167 171.862 243.196 142.916 206.548Z" fill="white"/>
<path d="M173.005 163.3C162.066 139.636 151.594 116.982 140.205 106.079L157.42 203.548C171.831 221.747 187.133 240.588 203.501 255.214C208.458 250.787 213.301 245.992 218.05 240.945C199.238 220.033 185.354 190.014 173.005 163.3Z" fill="white"/>
<path d="M264.084 206.548C248.267 226.574 231.964 247.214 213.827 263.73C227.538 274.059 241.982 280.913 257.247 281.659C262.6 275.725 267.023 268.843 270.246 261.189L316 152.526C300.397 160.574 282.652 183.04 264.084 206.548Z" fill="white"/>
</svg>
